#!OML:ASF H:\Dans Jumps\Project 1\Capture day 1\Session 1\subject.ASF
:FULLY-SPECIFIED
:DEGREES
201
root 0.62381 17.0801 -15.1677 10.1925 -0.568039 -1.48779
lowerback 5.49218 -0.613947 0.320117
upperback 5.06436 -0.831171 2.00161
thorax 2.16282 -0.442282 1.90922
lowerneck -12.9823 0.53659 -1.59475
upperneck 26.0515 1.35346 -0.801215
head 10.4766 0.364452 0.158132
rclavicle 5.76476e-015 -1.59028e-015
rhumerus -30.2441 -16.1664 -75.2558
rradius 26.1465
rwrist 28.6743
rhand -18.5267 -26.2731
rfingers 7.12502
rthumb 7.76203 -56.1107
lclavicle 5.76476e-015 -1.59028e-015
lhumerus -25.9053 -1.46388 86.2904
lradius 20.1833
lwrist 11.4857
lhand -27.2127 -4.44502
lfingers 7.12502
lthumb -0.625539 25.5338
rfemur -29.6567 -1.87261 19.948
rtibia 38.0506
rfoot -17.7545 -4.11115
rtoes 8.65267
lfemur -29.448 9.05914 -19.9008
ltibia 37.0634
lfoot -15.3206 6.83396
ltoes -3.85297
202
root 0.624745 17.0575 -15.188 10.304 -0.583051 -1.50513
lowerback 5.67774 -0.604356 0.318863
upperback 5.09509 -0.816248 2.01235
thorax 2.09127 -0.434998 1.9226
lowerneck -13.0582 0.531424 -1.58433
upperneck 25.9123 1.34691 -0.814988
head 10.4405 0.362153 0.150712
rclavicle -1.0635e-014 -5.56597e-015
rhumerus -30.578 -16.2408 -75.0426
rradius 26.1212
rwrist 28.7054
rhand -18.4837 -26.2925
rfingers 7.12502
rthumb 7.80348 -56.1285
lclavicle -1.0635e-014 -5.56597e-015
lhumerus -26.2926 -1.54547 86.2608
lradius 20.2028
lwrist 11.7442
lhand -27.2739 -4.57413
lfingers 7.12502
lthumb -0.684635 25.4045
rfemur -30.1455 -1.88205 19.9801
rtibia 38.5787
rfoot -17.9419 -4.13714
rtoes 8.5416
lfemur -29.9577 9.15536 -19.9362
ltibia 37.624
lfoot -15.5053 6.85671
ltoes -4.02146
203
root 0.62576 17.0337 -15.208 10.4137 -0.602559 -1.5276
lowerback 5.86891 -0.594965 0.321057
upperback 5.12425 -0.801351 2.02409
thorax 2.01503 -0.427624 1.9351
lowerneck -13.1372 0.528009 -1.57253
upperneck 25.7766 1.34332 -0.831597
head 10.4064 0.360943 0.142452
rclavicle -1.0138e-014 1.19271e-014
rhumerus -30.92 -16.3234 -74.8191
rradius 26.0769
rwrist 28.7952
rhand -18.4872 -26.2427
rfingers 7.12502
rthumb 7.80009 -56.0788
lclavicle -1.0138e-014 1.19271e-014
lhumerus -26.6999 -1.61413 86.2308
lradius 20.2286
lwrist 11.994
lhand -27.3191 -4.70096
lfingers 7.12502
lthumb -0.728283 25.2775
rfemur -30.6413 -1.89136 20.0183
rtibia 39.1267
rfoot -18.1477 -4.17183
rtoes 8.40193
lfemur -30.4757 9.24538 -19.9653
ltibia 38.2085
lfoot -15.6974 6.89431
ltoes -4.18645
204
root 0.626837 17.0084 -15.2277 10.5227 -0.627097 -1.56101
lowerback 6.06496 -0.585675 0.332244
upperback 5.15076 -0.786108 2.03858
thorax 1.93331 -0.419843 1.94539
lowerneck -13.2136 0.526188 -1.56511
upperneck 25.641 1.34236 -0.846015
head 10.3719 0.360754 0.136048
rclavicle 4.37326e-015 6.75868e-015
rhumerus -31.2677 -16.409 -74.5902
rradius 26.0307
rwrist 28.8937
rhand -18.474 -26.1919
rfingers 7.12502
rthumb 7.81284 -56.0275
lclavicle 4.37326e-015 6.75868e-015
lhumerus -27.1261 -1.66755 86.1988
lradius 20.2567
lwrist 12.2317
lhand -27.3297 -4.74785
lfingers 7.12502
lthumb -0.738548 25.2306
rfemur -31.1449 -1.89807 20.0691
rtibia 39.6937
rfoot -18.3726 -4.2183
rtoes 8.20733
lfemur -31.0025 9.32977 -19.9814
ltibia 38.816
lfoot -15.8969 6.94605
ltoes -4.34348
205
root 0.628099 16.9818 -15.247 10.6301 -0.657156 -1.6028
lowerback 6.2655 -0.576041 0.350791
upperback 5.17656 -0.769968 2.05488
thorax 1.84836 -0.411433 1.95337
lowerneck -13.28 0.525102 -1.56501
upperneck 25.4945 1.34238 -0.855295
head 10.3314 0.361074 0.132787
rclavicle 2.78299e-015 4.77083e-015
rhumerus -31.6177 -16.4982 -74.356
rradius 25.9838
rwrist 28.9858
rhand -18.4261 -26.1504
rfingers 7.12502
rthumb 7.85912 -55.9843
lclavicle 2.78299e-015 4.77083e-015
lhumerus -27.5666 -1.71241 86.1678
lradius 20.2856
lwrist 12.4653
lhand -27.3068 -4.69689
lfingers 7.12502
lthumb -0.71644 25.2816
rfemur -31.655 -1.90336 20.1293
rtibia 40.2788
rfoot -18.6167 -4.27268
rtoes 7.95967
lfemur -31.5354 9.40864 -19.9874
ltibia 39.445
lfoot -16.1052 7.0132
ltoes -4.47847
206
root 0.629586 16.954 -15.2658 10.7349 -0.693474 -1.64873
lowerback 6.46972 -0.565602 0.373512
upperback 5.20359 -0.752439 2.07061
thorax 1.76263 -0.402218 1.95833
lowerneck -13.3406 0.525147 -1.56832
upperneck 25.3359 1.3438 -0.862104
head 10.2854 0.362163 0.13112
rclavicle 9.93923e-015 -7.15625e-015
rhumerus -31.9641 -16.5981 -74.1176
rradius 25.9494
rwrist 29.0181
rhand -18.3066 -26.1152
rfingers 7.12502
rthumb 7.97445 -55.9448
lclavicle 9.93923e-015 -7.15625e-015
lhumerus -28.0198 -1.75218 86.1369
lradius 20.316
lwrist 12.6952
lhand -27.2807 -4.63641
lfingers 7.12502
lthumb -0.691154 25.3422
rfemur -32.17 -1.9076 20.1935
rtibia 40.8819
rfoot -18.8778 -4.32963
rtoes 7.67609
lfemur -32.0709 9.48004 -19.9879
ltibia 40.093
lfoot -16.3215 7.09833
ltoes -4.60125
207
root 0.631134 16.9248 -15.2843 10.8392 -0.737188 -1.69641
lowerback 6.67423 -0.553205 0.397114
upperback 5.23247 -0.732182 2.08408
thorax 1.67863 -0.391604 1.96026
lowerneck -13.3933 0.526272 -1.57287
upperneck 25.1594 1.3456 -0.865361
head 10.2315 0.363967 0.130908
rclavicle -2.5842e-015 -3.18055e-015
rhumerus -32.3113 -16.6932 -73.8856
rradius 25.9225
rwrist 29.0389
rhand -18.1798 -26.1019
rfingers 7.12502
rthumb 8.09679 -55.9268
lclavicle -2.5842e-015 -3.18055e-015
lhumerus -28.4746 -1.7878 86.1047
lradius 20.333
lwrist 12.913
lhand -27.2508 -4.55902
lfingers 7.12502
lthumb -0.662348 25.4197
rfemur -32.6943 -1.90675 20.259
rtibia 41.504
rfoot -19.1482 -4.38895
rtoes 7.36596
lfemur -32.6102 9.54406 -19.985
ltibia 40.7572
lfoot -16.5446 7.20514
ltoes -4.72406
208
root 0.632683 16.8945 -15.3023 10.943 -0.788906 -1.73923
lowerback 6.87888 -0.538223 0.41568
upperback 5.2632 -0.708644 2.09244
thorax 1.59647 -0.379428 1.95947
lowerneck -13.4491 0.529073 -1.56968
upperneck 24.9736 1.34837 -0.87091
head 10.1749 0.366779 0.128691
rclavicle -9.54166e-015 2.54444e-014
rhumerus -32.6624 -16.7809 -73.6626
rradius 25.9062
rwrist 29.0518
rhand -18.0613 -26.0827
rfingers 7.12502
rthumb 8.21116 -55.9031
lclavicle -9.54166e-015 2.54444e-014
lhumerus -28.9314 -1.81982 86.0697
lradius 20.3383
lwrist 13.1111
lhand -27.236 -4.50112
lfingers 7.12502
lthumb -0.647989 25.4776
rfemur -33.2291 -1.90012 20.3184
rtibia 42.1464
rfoot -19.4224 -4.44915
rtoes 7.0565
lfemur -33.1517 9.60085 -19.9859
ltibia 41.4352
lfoot -16.7741 7.332
ltoes -4.84348
209
root 0.634077 16.8628 -15.3199 11.0484 -0.849809 -1.76995
lowerback 7.07927 -0.521062 0.418844
upperback 5.29737 -0.683058 2.09516
thorax 1.52038 -0.366596 1.96124
lowerneck -13.5176 0.534583 -1.55889
upperneck 24.7841 1.35439 -0.880615
head 10.1197 0.371293 0.124173
rclavicle -7.95139e-015 1.39149e-015
rhumerus -33.01 -16.8706 -73.4442
rradius 25.888
rwrist 29.0752
rhand -17.9782 -26.0366
rfingers 7.12502
rthumb 8.29138 -55.8539
lclavicle -7.95139e-015 1.39149e-015
lhumerus -29.384 -1.84262 86.0313
lradius 20.3271
lwrist 13.2799
lhand -27.2057 -4.39029
lfingers 7.12502
lthumb -0.61872 25.5886
rfemur -33.7781 -1.88617 20.3636
rtibia 42.8101
rfoot -19.6975 -4.50589
rtoes 6.77435
lfemur -33.6975 9.65343 -19.9989
ltibia 42.125
lfoot -17.01 7.47402
ltoes -4.96729
210
root 0.63522 16.8299 -15.3369 11.1537 -0.919196 -1.788
lowerback 7.2767 -0.501919 0.406082
upperback 5.3339 -0.65578 2.09186
thorax 1.44852 -0.353274 1.9655
lowerneck -13.5965 0.542674 -1.54061
upperneck 24.5946 1.36313 -0.8932
head 10.0668 0.377371 0.117763
rclavicle 9.93923e-015 -3.18055e-015
rhumerus -33.3528 -16.9672 -73.2295
rradius 25.8724
rwrist 29.0761
rhand -17.8848 -25.992
rfingers 7.12502
rthumb 8.38152 -55.8057
lclavicle 9.93923e-015 -3.18055e-015
lhumerus -29.8347 -1.86378 85.991
lradius 20.2978
lwrist 13.4247
lhand -27.1841 -4.30098
lfingers 7.12502
lthumb -0.597893 25.6779
rfemur -34.3364 -1.86168 20.3925
rtibia 43.4946
rfoot -19.9757 -4.55359
rtoes 6.58538
lfemur -34.2451 9.70367 -20.0241
ltibia 42.8245
lfoot -17.2503 7.6259
ltoes -5.09349
211
root 0.636202 16.7957 -15.3533 11.2584 -0.998302 -1.79226
lowerback 7.47213 -0.480472 0.377413
upperback 5.37073 -0.626436 2.08219
thorax 1.3782 -0.339243 1.97185
lowerneck -13.6816 0.553058 -1.5157
upperneck 24.4088 1.37487 -0.910623
head 10.0165 0.384788 0.108948
rclavicle 1.20265e-014 7.95139e-016
rhumerus -33.6986 -17.076 -73.01
rradius 25.85
rwrist 29.0831
rhand -17.8083 -25.8971
rfingers 7.12502
rthumb 8.45536 -55.7079
lclavicle 1.20265e-014 7.95139e-016
lhumerus -30.288 -1.89182 85.9533
lradius 20.2544
lwrist 13.5509
lhand -27.1606 -4.21109
lfingers 7.12502
lthumb -0.575209 25.7679
rfemur -34.9014 -1.82766 20.4034
rtibia 44.1972
rfoot -20.2579 -4.59237
rtoes 6.49032
lfemur -34.7944 9.75309 -20.0635
ltibia 43.5324
lfoot -17.4917 7.78559
ltoes -5.22436
212
root 0.636959 16.7605 -15.3689 11.3603 -1.08465 -1.78672
lowerback 7.6671 -0.457857 0.336719
upperback 5.40651 -0.596373 2.06802
thorax 1.30716 -0.325083 1.98012
lowerneck -13.7655 0.564698 -1.49329
upperneck 24.2294 1.38845 -0.926031
head 9.96845 0.39297 0.101512
rclavicle 1.98785e-015 3.97569e-015
rhumerus -34.0493 -17.1675 -72.8008
rradius 25.842
rwrist 29.0463
rhand -17.7206 -25.8297
rfingers 7.12502
rthumb 8.54001 -55.637
lclavicle 1.98785e-015 3.97569e-015
lhumerus -30.7476 -1.92742 85.9188
lradius 20.1952
lwrist 13.6555
lhand -27.1358 -4.14482
lfingers 7.12502
lthumb -0.551219 25.8342
rfemur -35.4672 -1.7844 20.4012
rtibia 44.9136
rfoot -20.5462 -4.62832
rtoes 6.45964
lfemur -35.3429 9.80304 -20.1128
ltibia 44.2477
lfoot -17.7311 7.95015
ltoes -5.35596
213
root 0.637636 16.7245 -15.3837 11.4577 -1.17966 -1.77895
lowerback 7.8653 -0.433093 0.291417
upperback 5.44018 -0.563866 2.0521
thorax 1.23218 -0.309765 1.98894
lowerneck -13.8482 0.577494 -1.47299
upperneck 24.0598 1.40438 -0.941975
head 9.92377 0.401857 0.0945596
rclavicle 7.7526e-015 -5.76476e-015
rhumerus -34.4055 -17.2476 -72.5979
rradius 25.8301
rwrist 29.0259
rhand -17.6456 -25.7981
rfingers 7.12502
rthumb 8.61239 -55.6025
lclavicle 7.7526e-015 -5.76476e-015
lhumerus -31.2094 -1.95871 85.8852
lradius 20.1157
lwrist 13.7158
lhand -27.0923 -4.0763
lfingers 7.12502
lthumb -0.509217 25.9028
rfemur -36.029 -1.73235 20.3943
rtibia 45.6379
rfoot -20.8433 -4.66301
rtoes 6.46805
lfemur -35.8881 9.85687 -20.1642
ltibia 44.9697
lfoot -17.969 8.11798
ltoes -5.4737
214
root 0.638248 16.6875 -15.3978 11.5513 -1.27814 -1.77464
lowerback 8.0684 -0.408026 0.248009
upperback 5.47105 -0.530965 2.03675
thorax 1.15164 -0.294166 1.99715
lowerneck -13.93 0.591379 -1.45565
upperneck 23.9018 1.42312 -0.959703
head 9.88316 0.411432 0.0878599
rclavicle 5.1684e-015 7.95139e-016
rhumerus -34.7621 -17.3203 -72.3984
rradius 25.8156
rwrist 29.0037
rhand -17.5734 -25.7788
rfingers 7.12502
rthumb 8.68207 -55.5802
lclavicle 5.1684e-015 7.95139e-016
lhumerus -31.6738 -1.97653 85.8503
lradius 20.019
lwrist 13.7193
lhand -27.0394 -4.04155
lfingers 7.12502
lthumb -0.458148 25.9377
rfemur -36.5854 -1.6759 20.3907
rtibia 46.3655
rfoot -21.148 -4.70442
rtoes 6.47272
lfemur -36.431 9.9151 -20.2128
ltibia 45.6977
lfoot -18.204 8.2932
ltoes -5.59941
